# xmcd CD database file
#
# Track frame offsets:
#	150
#	18707
#	33645
#	45437
#	66362
#	79500
#	99167
#	114547
#	148122
#	168022
#	181592
#
# Disc length: 2552 seconds
#
# Revision: 0
# Processed by: cddbd v1.4PL0 Copyright (c) Steve Scherf et al.
# Submitted via: CDex 1.40Release
#
DISCID=8409f60b
DTITLE=Scuba Divers - What Do You Wash Your Hair For
DYEAR=1994
DGENRE=Blues
TTITLE0=Sky Of Love
TTITLE1=All Night Till Morning
TTITLE2=Change Of Fate
TTITLE3=Midnight Train
TTITLE4=I Don't Care
TTITLE5=707 Years
TTITLE6=Down Deep
TTITLE7=Put My Mind At Ease
TTITLE8=Moving On
TTITLE9=Madman At Your Door
TTITLE10=Nerve
EXTD=YEAR: 1994 ID3G: 0
EXTT0=
EXTT1=
EXTT2=
EXTT3=
EXTT4=
EXTT5=
EXTT6=
EXTT7=
EXTT8=
EXTT9=
EXTT10=
PLAYORDER=
